# OBJ Exporter v1.2 by Jaden Seungwoo Oh at CLO Virtual Fashion Inc.
mtllib square_top.mtl
v -0.122944 0.443823 0.234110
v -0.096057 0.444004 0.222294
v -0.069172 0.444185 0.210478
v -0.042286 0.444366 0.198663
v -0.015401 0.444547 0.186848
v -0.026963 0.445844 0.160559
v -0.038525 0.447142 0.134269
v -0.050088 0.448440 0.107980
v -0.061649 0.449739 0.081690
v -0.088535 0.449558 0.093505
v -0.115422 0.449377 0.105321
v -0.142307 0.449196 0.117136
v -0.169194 0.449016 0.128953
v -0.157632 0.447715 0.155242
v -0.146070 0.446418 0.181531
v -0.134507 0.445121 0.207821
v -0.115282 0.444562 0.215057
v -0.112643 0.447331 0.151156
v -0.149969 0.448456 0.136189
v -0.135137 0.447523 0.153199
v -0.125663 0.448310 0.132569
v -0.034625 0.445106 0.179611
v -0.069311 0.448999 0.100743
v -0.114102 0.445948 0.183101
v -0.129553 0.446646 0.171616
v -0.130487 0.445835 0.190368
v -0.091402 0.445080 0.196406
v -0.065940 0.445563 0.178117
v -0.059914 0.444745 0.195055
v -0.052434 0.446360 0.156067
v -0.069807 0.447672 0.131130
v -0.053400 0.447730 0.125121
v -0.093228 0.448485 0.119309
v -0.090433 0.447417 0.142836
v -0.106624 0.448059 0.132835
v -0.074357 0.446558 0.157822
v -0.092767 0.446134 0.172758
vn 0.012531 0.998962 0.043790
vn 0.012531 0.998962 0.043795
vn 0.012520 0.998962 0.043802
vn 0.012519 0.998962 0.043801
vn 0.012546 0.998962 0.043796
vn 0.012524 0.998962 0.043791
vn 0.012529 0.998961 0.043812
vn 0.012564 0.998961 0.043811
vn 0.012549 0.998960 0.043839
vn 0.012545 0.998960 0.043837
vn 0.012543 0.998959 0.043855
vn 0.012559 0.998959 0.043865
vn 0.012577 0.998957 0.043893
vn 0.012506 0.998960 0.043854
vn 0.012502 0.998962 0.043798
vn 0.012523 0.998962 0.043790
vn 0.012529 0.998962 0.043793
vn 0.012528 0.998961 0.043811
vn 0.012548 0.998958 0.043869
vn 0.012518 0.998961 0.043822
vn 0.012543 0.998960 0.043847
vn 0.012520 0.998962 0.043788
vn 0.012543 0.998960 0.043825
vn 0.012529 0.998962 0.043794
vn 0.012528 0.998962 0.043801
vn 0.012522 0.998962 0.043794
vn 0.012525 0.998962 0.043796
vn 0.012516 0.998962 0.043792
vn 0.012512 0.998962 0.043798
vn 0.012523 0.998962 0.043805
vn 0.012530 0.998961 0.043825
vn 0.012544 0.998961 0.043814
vn 0.012534 0.998960 0.043834
vn 0.012519 0.998961 0.043823
vn 0.012527 0.998960 0.043844
vn 0.012528 0.998961 0.043814
vn 0.012523 0.998962 0.043802
vt -58.736107 -57.497948
vt -29.368057 -57.497948
vt 0.000000 -57.497948
vt 29.368057 -57.497948
vt 58.736099 -57.497948
vt 58.736099 -28.748978
vt 58.736099 0.000000
vt 58.736099 28.748962
vt 58.736099 57.497955
vt 29.368042 57.497955
vt 0.000000 57.497955
vt -29.368042 57.497955
vt -58.736107 57.497955
vt -58.736107 28.748993
vt -58.736107 0.000000
vt -58.736107 -28.748993
vt -44.052078 -43.123474
vt -15.909149 14.374496
vt -44.052078 43.123474
vt -37.322624 21.561737
vt -20.344765 36.652130
vt 44.052078 -43.123459
vt 44.052078 43.123459
vt -30.106262 -14.312988
vt -39.625961 2.435242
vt -48.029694 -14.374496
vt -14.684029 -35.648148
vt 15.987732 -29.142136
vt 14.684036 -47.092133
vt 37.227905 -14.374481
vt 31.364532 15.475342
vt 48.802628 14.374481
vt 14.684021 35.741592
vt 7.771255 13.054184
vt -3.024193 28.740372
vt 16.453415 -7.153336
vt -6.412155 -13.427185
g square_top
s 1
usemtl Fabric27239_FRONT_27239
f 2/2/2 3/3/3 27/27/27
f 16/16/16 1/1/1 17/17/17
f 24/24/24 26/26/26 17/17/17
f 16/16/16 26/26/26 15/15/15
f 17/17/17 2/2/2 27/27/27
f 27/27/27 24/24/24 17/17/17
f 20/20/20 25/25/25 18/18/18
f 25/25/25 20/20/20 15/15/15
f 21/21/21 20/20/20 18/18/18
f 12/12/12 13/13/13 19/19/19
f 19/19/19 20/20/20 21/21/21
f 28/28/28 29/29/29 22/22/22
f 12/12/12 19/19/19 21/21/21
f 1/1/1 2/2/2 17/17/17
f 4/4/4 5/5/5 22/22/22
f 10/10/10 11/11/11 33/33/33
f 37/37/37 24/24/24 27/27/27
f 6/6/6 7/7/7 30/30/30
f 5/5/5 6/6/6 22/22/22
f 32/32/32 23/23/23 31/31/31
f 14/14/14 15/15/15 20/20/20
f 31/31/31 23/23/23 33/33/33
f 8/8/8 9/9/9 23/23/23
f 18/18/18 34/34/34 35/35/35
f 32/32/32 30/30/30 7/7/7
f 19/19/19 14/14/14 20/20/20
f 11/11/11 12/12/12 21/21/21
f 36/36/36 37/37/37 28/28/28
f 9/9/9 10/10/10 23/23/23
f 13/13/13 14/14/14 19/19/19
f 26/26/26 25/25/25 15/15/15
f 18/18/18 25/25/25 24/24/24
f 17/17/17 26/26/26 16/16/16
f 25/25/25 26/26/26 24/24/24
f 29/29/29 3/3/3 4/4/4
f 27/27/27 3/3/3 29/29/29
f 30/30/30 22/22/22 6/6/6
f 22/22/22 30/30/30 28/28/28
f 22/22/22 29/29/29 4/4/4
f 27/27/27 29/29/29 28/28/28
f 7/7/7 8/8/8 32/32/32
f 31/31/31 34/34/34 36/36/36
f 23/23/23 10/10/10 33/33/33
f 31/31/31 33/33/33 34/34/34
f 23/23/23 32/32/32 8/8/8
f 30/30/30 32/32/32 31/31/31
f 35/35/35 11/11/11 21/21/21
f 33/33/33 35/35/35 34/34/34
f 18/18/18 24/24/24 37/37/37
f 30/30/30 36/36/36 28/28/28
f 11/11/11 35/35/35 33/33/33
f 18/18/18 35/35/35 21/21/21
f 31/31/31 36/36/36 30/30/30
f 34/34/34 18/18/18 37/37/37
f 28/28/28 37/37/37 27/27/27
f 37/37/37 36/36/36 34/34/34
